<svg xmlns="http://www.w3.org/2000/svg" version="1.1" xmlns:xlink="http://www.w3.org/1999/xlink" viewBox="0 0 200 200"><rect width="200" height="200" fill="url('#gradient')"></rect><defs><linearGradient id="gradient" gradientTransform="rotate(45 0.5 0.5)"><stop offset="0%" stop-color="#ffffff"></stop><stop offset="100%" stop-color="#ffffff"></stop></linearGradient></defs><g><g fill="#000000" transform="matrix(1.9204801200300075,0,0,1.9204801200300075,-0.6544756995093479,110.5037756245206)" stroke="#000000" stroke-width="0.25"><path d="M6.46-2.97L6.46-2.97Q6.46-3.39 6.02-3.64Q5.58-3.90 4.35-4.17Q3.12-4.44 2.31-4.89Q1.51-5.33 1.09-5.97Q0.67-6.60 0.67-7.42L0.67-7.42Q0.67-8.88 1.88-9.82Q3.08-10.76 5.02-10.76L5.02-10.76Q7.11-10.76 8.38-9.81Q9.65-8.87 9.65-7.32L9.65-7.32L6.35-7.32Q6.35-8.59 5.01-8.59L5.01-8.59Q4.49-8.59 4.14-8.31Q3.79-8.02 3.79-7.59L3.79-7.59Q3.79-7.15 4.22-6.88Q4.65-6.60 5.59-6.43Q6.53-6.25 7.25-6.01L7.25-6.01Q9.63-5.19 9.63-3.07L9.63-3.07Q9.63-1.62 8.34-0.71Q7.06 0.20 5.02 0.20L5.02 0.20Q3.66 0.20 2.60-0.29Q1.53-0.78 0.94-1.62Q0.34-2.46 0.34-3.39L0.34-3.39L3.42-3.39Q3.44-2.66 3.91-2.32Q4.38-1.98 5.11-1.98L5.11-1.98Q5.78-1.98 6.12-2.26Q6.46-2.53 6.46-2.97ZM11.19-10.57L14.28-10.57L14.38-9.33Q15.51-10.76 17.40-10.76L17.40-10.76Q19.40-10.76 20.11-9.17L20.11-9.17Q21.18-10.76 23.21-10.76L23.21-10.76Q26.43-10.76 26.51-6.88L26.51-6.88L26.51 0L23.21 0L23.21-6.67Q23.21-7.48 22.94-7.85Q22.67-8.22 21.94-8.22L21.94-8.22Q20.97-8.22 20.49-7.35L20.49-7.35L20.50-7.22L20.50 0L17.20 0L17.20-6.65Q17.20-7.48 16.93-7.85Q16.67-8.22 15.93-8.22L15.93-8.22Q14.98-8.22 14.48-7.35L14.48-7.35L14.48 0L11.19 0L11.19-10.57ZM37.64 0L34.35 0Q34.17-0.32 34.03-0.95L34.03-0.95Q33.13 0.20 31.49 0.20L31.49 0.20Q30 0.20 28.96-0.71Q27.91-1.61 27.91-2.98L27.91-2.98Q27.91-4.70 29.18-5.58Q30.45-6.46 32.87-6.46L32.87-6.46L33.89-6.46L33.89-7.01Q33.89-8.47 32.63-8.47L32.63-8.47Q31.46-8.47 31.46-7.31L31.46-7.31L28.16-7.31Q28.16-8.85 29.47-9.80Q30.77-10.76 32.79-10.76Q34.81-10.76 35.99-9.78Q37.16-8.79 37.19-7.07L37.19-7.07L37.19-2.39Q37.21-0.94 37.64-0.17L37.64-0.17L37.64 0ZM32.29-2.15L32.29-2.15Q32.90-2.15 33.31-2.41Q33.71-2.68 33.89-3.01L33.89-3.01L33.89-4.70L32.93-4.70Q31.21-4.70 31.21-3.15L31.21-3.15Q31.21-2.71 31.51-2.43Q31.82-2.15 32.29-2.15ZM45.46-10.64L45.40-7.59L44.32-7.67Q42.76-7.67 42.32-6.69L42.32-6.69L42.32 0L39.03 0L39.03-10.57L42.12-10.57L42.23-9.21Q43.06-10.76 44.54-10.76L44.54-10.76Q45.07-10.76 45.46-10.64L45.46-10.64ZM47.62-13.19L50.91-13.19L50.91-10.57L52.65-10.57L52.65-8.28L50.91-8.28L50.91-3.45Q50.91-2.85 51.12-2.62Q51.34-2.38 51.97-2.38L51.97-2.38Q52.46-2.38 52.79-2.44L52.79-2.44L52.79-0.09Q51.90 0.20 50.94 0.20L50.94 0.20Q49.24 0.20 48.43-0.61Q47.62-1.41 47.62-3.04L47.62-3.04L47.62-8.28L46.27-8.28L46.27-10.57L47.62-10.57L47.62-13.19ZM63.75-5.36L63.75-5.21Q63.75-2.74 62.64-1.27Q61.53 0.20 59.65 0.20L59.65 0.20Q58.19 0.20 57.26-0.87L57.26-0.87L57.26 4.06L53.96 4.06L53.96-10.57L57.04-10.57L57.14-9.59Q58.09-10.76 59.63-10.76L59.63-10.76Q61.58-10.76 62.67-9.32Q63.75-7.88 63.75-5.36L63.75-5.36ZM60.46-5.06L60.46-5.41Q60.46-8.22 58.82-8.22L58.82-8.22Q57.65-8.22 57.26-7.38L57.26-7.38L57.26-3.22Q57.69-2.34 58.84-2.34L58.84-2.34Q60.41-2.34 60.46-5.06L60.46-5.06ZM71.65-10.64L71.59-7.59L70.51-7.67Q68.96-7.67 68.52-6.69L68.52-6.69L68.52 0L65.22 0L65.22-10.57L68.31-10.57L68.42-9.21Q69.25-10.76 70.73-10.76L70.73-10.76Q71.26-10.76 71.65-10.64L71.65-10.64ZM72.02-4.82L72.01-5.38Q72.01-6.96 72.63-8.20Q73.24-9.43 74.39-10.10Q75.55-10.76 77.10-10.76L77.10-10.76Q79.47-10.76 80.84-9.29Q82.21-7.82 82.21-5.29L82.21-5.29L82.21-5.18Q82.21-2.71 80.83-1.25Q79.46 0.20 77.12 0.20L77.12 0.20Q74.86 0.20 73.50-1.16Q72.13-2.51 72.02-4.82L72.02-4.82ZM75.31-5.77L75.30-5.18Q75.30-3.71 75.76-3.03Q76.22-2.34 77.12-2.34L77.12-2.34Q78.88-2.34 78.92-5.05L78.92-5.05L78.92-5.38Q78.92-8.22 77.10-8.22L77.10-8.22Q75.45-8.22 75.31-5.77L75.31-5.77ZM93.47-5.36L93.47-5.20Q93.47-2.60 92.39-1.20Q91.32 0.20 89.37 0.20L89.37 0.20Q87.75 0.20 86.77-1.08L86.77-1.08L86.63 0L83.68 0L83.68-15L86.97-15L86.97-9.72Q87.89-10.76 89.35-10.76L89.35-10.76Q91.32-10.76 92.39-9.35Q93.47-7.93 93.47-5.36L93.47-5.36ZM90.17-5.40L90.17-5.40Q90.17-6.92 89.76-7.57Q89.36-8.22 88.52-8.22L88.52-8.22Q87.40-8.22 86.97-7.37L86.97-7.37L86.97-3.17Q87.39-2.33 88.54-2.33L88.54-2.33Q89.70-2.33 90.01-3.47L90.01-3.47Q90.17-4.02 90.17-5.40ZM100.03 0.20L100.03 0.20Q97.60 0.20 96.09-1.25Q94.59-2.71 94.59-5.03L94.59-5.03L94.59-5.30Q94.59-6.92 95.19-8.16Q95.79-9.40 96.94-10.08Q98.10-10.76 99.68-10.76L99.68-10.76Q101.90-10.76 103.19-9.38Q104.48-8.00 104.48-5.53L104.48-5.53L104.48-4.25L97.94-4.25Q98.12-3.36 98.71-2.85Q99.31-2.34 100.25-2.34L100.25-2.34Q101.82-2.34 102.70-3.44L102.70-3.44L104.20-1.66Q103.58-0.81 102.46-0.31Q101.33 0.20 100.03 0.20ZM99.66-8.22L99.66-8.22Q98.21-8.22 97.94-6.31L97.94-6.31L101.26-6.31L101.26-6.56Q101.28-7.35 100.86-7.79Q100.44-8.22 99.66-8.22Z"></path></g></g></svg>